# 3ds Max Wavefront OBJ Exporter v0.97b - (c)2007 guruware
# 创建的文件:23.12.2018 11:05:08

mtllib arrow_2.mtl

#
# object Cone001
#

v  0.0000 36.0000 -0.0000
v  11.8562 36.0000 -3.1768
v  12.2744 36.0000 -0.0000
v  10.6299 36.0000 -6.1372
v  8.6793 36.0000 -8.6793
v  6.1372 36.0000 -10.6299
v  3.1768 36.0000 -11.8562
v  0.0000 36.0000 -12.2744
v  -3.1768 36.0000 -11.8562
v  -6.1372 36.0000 -10.6299
v  -8.6793 36.0000 -8.6793
v  -10.6299 36.0000 -6.1372
v  -11.8562 36.0000 -3.1769
v  -12.2744 36.0000 -0.0000
v  -11.8562 36.0000 3.1768
v  -10.6299 36.0000 6.1372
v  -8.6793 36.0000 8.6793
v  -6.1372 36.0000 10.6299
v  -3.1769 36.0000 11.8562
v  -0.0000 36.0000 12.2744
v  3.1768 36.0000 11.8562
v  6.1372 36.0000 10.6299
v  8.6793 36.0000 8.6793
v  10.6299 36.0000 6.1372
v  11.8562 36.0000 3.1769
v  9.4849 41.8782 -2.5415
v  9.8195 41.8782 -0.0000
v  8.5039 41.8782 -4.9098
v  6.9434 41.8782 -6.9434
v  4.9098 41.8782 -8.5040
v  2.5415 41.8782 -9.4849
v  0.0000 41.8782 -9.8195
v  -2.5415 41.8782 -9.4849
v  -4.9098 41.8782 -8.5040
v  -6.9434 41.8782 -6.9434
v  -8.5039 41.8782 -4.9098
v  -9.4849 41.8782 -2.5415
v  -9.8195 41.8782 -0.0000
v  -9.4849 41.8782 2.5415
v  -8.5040 41.8782 4.9098
v  -6.9434 41.8782 6.9434
v  -4.9098 41.8782 8.5039
v  -2.5415 41.8782 9.4849
v  -0.0000 41.8782 9.8195
v  2.5415 41.8782 9.4849
v  4.9098 41.8782 8.5040
v  6.9434 41.8782 6.9434
v  8.5039 41.8782 4.9098
v  9.4849 41.8782 2.5415
v  7.1137 47.7564 -1.9061
v  7.3646 47.7564 -0.0000
v  6.3780 47.7564 -3.6823
v  5.2076 47.7564 -5.2076
v  3.6823 47.7564 -6.3780
v  1.9061 47.7564 -7.1137
v  0.0000 47.7564 -7.3646
v  -1.9061 47.7564 -7.1137
v  -3.6823 47.7564 -6.3780
v  -5.2076 47.7564 -5.2076
v  -6.3780 47.7564 -3.6823
v  -7.1137 47.7564 -1.9061
v  -7.3646 47.7564 -0.0000
v  -7.1137 47.7564 1.9061
v  -6.3780 47.7564 3.6823
v  -5.2076 47.7564 5.2076
v  -3.6823 47.7564 6.3780
v  -1.9061 47.7564 7.1137
v  -0.0000 47.7564 7.3646
v  1.9061 47.7564 7.1137
v  3.6823 47.7564 6.3780
v  5.2076 47.7564 5.2076
v  6.3780 47.7564 3.6823
v  7.1137 47.7564 1.9061
v  4.7425 53.6346 -1.2707
v  4.9098 53.6346 -0.0000
v  4.2520 53.6346 -2.4549
v  3.4717 53.6346 -3.4717
v  2.4549 53.6346 -4.2520
v  1.2707 53.6346 -4.7425
v  0.0000 53.6346 -4.9098
v  -1.2707 53.6346 -4.7425
v  -2.4549 53.6346 -4.2520
v  -3.4717 53.6346 -3.4717
v  -4.2520 53.6346 -2.4549
v  -4.7425 53.6346 -1.2707
v  -4.9098 53.6346 -0.0000
v  -4.7425 53.6346 1.2707
v  -4.2520 53.6346 2.4549
v  -3.4717 53.6346 3.4717
v  -2.4549 53.6346 4.2520
v  -1.2707 53.6346 4.7425
v  -0.0000 53.6346 4.9098
v  1.2707 53.6346 4.7425
v  2.4549 53.6346 4.2520
v  3.4717 53.6346 3.4717
v  4.2520 53.6346 2.4549
v  4.7425 53.6346 1.2707
v  2.3712 59.5128 -0.6354
v  2.4549 59.5128 -0.0000
v  2.1260 59.5128 -1.2274
v  1.7359 59.5128 -1.7359
v  1.2274 59.5128 -2.1260
v  0.6354 59.5128 -2.3712
v  0.0000 59.5128 -2.4549
v  -0.6354 59.5128 -2.3712
v  -1.2274 59.5128 -2.1260
v  -1.7359 59.5128 -1.7359
v  -2.1260 59.5128 -1.2274
v  -2.3712 59.5128 -0.6354
v  -2.4549 59.5128 -0.0000
v  -2.3712 59.5128 0.6354
v  -2.1260 59.5128 1.2274
v  -1.7359 59.5128 1.7359
v  -1.2274 59.5128 2.1260
v  -0.6354 59.5128 2.3712
v  -0.0000 59.5128 2.4549
v  0.6354 59.5128 2.3712
v  1.2274 59.5128 2.1260
v  1.7359 59.5128 1.7359
v  2.1260 59.5128 1.2274
v  2.3712 59.5128 0.6354
v  0.0000 65.3911 -0.0000
# 122 vertices

vn 0.0000 -1.0000 -0.0000
vn 0.9228 0.3854 0.0000
vn 0.8913 0.3854 -0.2388
vn 0.7991 0.3854 -0.4614
vn 0.6525 0.3854 -0.6525
vn 0.4614 0.3854 -0.7991
vn 0.2388 0.3854 -0.8913
vn 0.0000 0.3854 -0.9228
vn -0.2388 0.3854 -0.8913
vn -0.4614 0.3854 -0.7991
vn -0.6525 0.3854 -0.6525
vn -0.7991 0.3854 -0.4614
vn -0.8913 0.3854 -0.2388
vn -0.9228 0.3854 -0.0000
vn -0.8913 0.3854 0.2388
vn -0.7991 0.3854 0.4614
vn -0.6525 0.3854 0.6525
vn -0.4614 0.3854 0.7991
vn -0.2388 0.3854 0.8913
vn -0.0000 0.3854 0.9228
vn 0.2388 0.3854 0.8913
vn 0.4614 0.3854 0.7991
vn 0.6525 0.3854 0.6525
vn 0.7991 0.3854 0.4614
vn 0.8913 0.3854 0.2388
vn 0.9160 0.3826 -0.1206
vn 0.9160 0.3826 0.1206
vn 0.8536 0.3826 -0.3536
vn 0.7330 0.3826 -0.5625
vn 0.5625 0.3826 -0.7330
vn 0.3536 0.3826 -0.8536
vn 0.1206 0.3826 -0.9160
vn -0.1206 0.3826 -0.9160
vn -0.3536 0.3826 -0.8536
vn -0.5625 0.3826 -0.7330
vn -0.7330 0.3826 -0.5625
vn -0.8536 0.3826 -0.3536
vn -0.9160 0.3826 -0.1206
vn -0.9160 0.3826 0.1206
vn -0.8536 0.3826 0.3536
vn -0.7330 0.3826 0.5625
vn -0.5625 0.3826 0.7330
vn -0.3536 0.3826 0.8536
vn -0.1206 0.3826 0.9160
vn 0.1206 0.3826 0.9160
vn 0.3536 0.3826 0.8536
vn 0.5625 0.3826 0.7330
vn 0.7330 0.3826 0.5625
vn 0.8536 0.3826 0.3536
vn 1.0000 0.0000 -0.0000
# 50 vertex normals

vt 0.5000 0.0000 0.0000
vt 0.7917 0.0000 1.0000
vt 0.7500 0.0000 1.0000
vt 0.8333 0.0000 1.0000
vt 0.8750 0.0000 1.0000
vt 0.9167 0.0000 1.0000
vt 0.9583 0.0000 1.0000
vt 1.0000 0.0000 1.0000
vt 0.0417 0.0000 1.0000
vt 0.0000 0.0000 1.0000
vt 0.0833 0.0000 1.0000
vt 0.1250 0.0000 1.0000
vt 0.1667 0.0000 1.0000
vt 0.2083 0.0000 1.0000
vt 0.2500 0.0000 1.0000
vt 0.2917 0.0000 1.0000
vt 0.3333 0.0000 1.0000
vt 0.3750 0.0000 1.0000
vt 0.4167 0.0000 1.0000
vt 0.4583 0.0000 1.0000
vt 0.5000 0.0000 1.0000
vt 0.5417 0.0000 1.0000
vt 0.5833 0.0000 1.0000
vt 0.6250 0.0000 1.0000
vt 0.6667 0.0000 1.0000
vt 0.7083 0.0000 1.0000
vt 0.7917 0.2000 0.8000
vt 0.7500 0.2000 0.8000
vt 0.8333 0.2000 0.8000
vt 0.8750 0.2000 0.8000
vt 0.9167 0.2000 0.8000
vt 0.9583 0.2000 0.8000
vt 1.0000 0.2000 0.8000
vt 0.0417 0.2000 0.8000
vt 0.0000 0.2000 0.8000
vt 0.0833 0.2000 0.8000
vt 0.1250 0.2000 0.8000
vt 0.1667 0.2000 0.8000
vt 0.2083 0.2000 0.8000
vt 0.2500 0.2000 0.8000
vt 0.2917 0.2000 0.8000
vt 0.3333 0.2000 0.8000
vt 0.3750 0.2000 0.8000
vt 0.4167 0.2000 0.8000
vt 0.4583 0.2000 0.8000
vt 0.5000 0.2000 0.8000
vt 0.5417 0.2000 0.8000
vt 0.5833 0.2000 0.8000
vt 0.6250 0.2000 0.8000
vt 0.6667 0.2000 0.8000
vt 0.7083 0.2000 0.8000
vt 0.7917 0.4000 0.6000
vt 0.7500 0.4000 0.6000
vt 0.8333 0.4000 0.6000
vt 0.8750 0.4000 0.6000
vt 0.9167 0.4000 0.6000
vt 0.9583 0.4000 0.6000
vt 1.0000 0.4000 0.6000
vt 0.0417 0.4000 0.6000
vt 0.0000 0.4000 0.6000
vt 0.0833 0.4000 0.6000
vt 0.1250 0.4000 0.6000
vt 0.1667 0.4000 0.6000
vt 0.2083 0.4000 0.6000
vt 0.2500 0.4000 0.6000
vt 0.2917 0.4000 0.6000
vt 0.3333 0.4000 0.6000
vt 0.3750 0.4000 0.6000
vt 0.4167 0.4000 0.6000
vt 0.4583 0.4000 0.6000
vt 0.5000 0.4000 0.6000
vt 0.5417 0.4000 0.6000
vt 0.5833 0.4000 0.6000
vt 0.6250 0.4000 0.6000
vt 0.6667 0.4000 0.6000
vt 0.7083 0.4000 0.6000
vt 0.7917 0.6000 0.4000
vt 0.7500 0.6000 0.4000
vt 0.8333 0.6000 0.4000
vt 0.8750 0.6000 0.4000
vt 0.9167 0.6000 0.4000
vt 0.9583 0.6000 0.4000
vt 1.0000 0.6000 0.4000
vt 0.0417 0.6000 0.4000
vt 0.0000 0.6000 0.4000
vt 0.0833 0.6000 0.4000
vt 0.1250 0.6000 0.4000
vt 0.1667 0.6000 0.4000
vt 0.2083 0.6000 0.4000
vt 0.2500 0.6000 0.4000
vt 0.2917 0.6000 0.4000
vt 0.3333 0.6000 0.4000
vt 0.3750 0.6000 0.4000
vt 0.4167 0.6000 0.4000
vt 0.4583 0.6000 0.4000
vt 0.5000 0.6000 0.4000
vt 0.5417 0.6000 0.4000
vt 0.5833 0.6000 0.4000
vt 0.6250 0.6000 0.4000
vt 0.6667 0.6000 0.4000
vt 0.7083 0.6000 0.4000
vt 0.7917 0.8000 0.2000
vt 0.7500 0.8000 0.2000
vt 0.8333 0.8000 0.2000
vt 0.8750 0.8000 0.2000
vt 0.9167 0.8000 0.2000
vt 0.9583 0.8000 0.2000
vt 1.0000 0.8000 0.2000
vt 0.0417 0.8000 0.2000
vt 0.0000 0.8000 0.2000
vt 0.0833 0.8000 0.2000
vt 0.1250 0.8000 0.2000
vt 0.1667 0.8000 0.2000
vt 0.2083 0.8000 0.2000
vt 0.2500 0.8000 0.2000
vt 0.2917 0.8000 0.2000
vt 0.3333 0.8000 0.2000
vt 0.3750 0.8000 0.2000
vt 0.4167 0.8000 0.2000
vt 0.4583 0.8000 0.2000
vt 0.5000 0.8000 0.2000
vt 0.5417 0.8000 0.2000
vt 0.5833 0.8000 0.2000
vt 0.6250 0.8000 0.2000
vt 0.6667 0.8000 0.2000
vt 0.7083 0.8000 0.2000
vt 0.5000 1.0000 0.0000
# 127 texture coords

o Cone001
g Cone001
usemtl wire_087225087
s 1
f 1/1/1 2/2/1 3/3/1 
f 1/1/1 4/4/1 2/2/1 
f 1/1/1 5/5/1 4/4/1 
f 1/1/1 6/6/1 5/5/1 
f 1/1/1 7/7/1 6/6/1 
f 1/1/1 8/8/1 7/7/1 
f 1/1/1 9/9/1 8/10/1 
f 1/1/1 10/11/1 9/9/1 
f 1/1/1 11/12/1 10/11/1 
f 1/1/1 12/13/1 11/12/1 
f 1/1/1 13/14/1 12/13/1 
f 1/1/1 14/15/1 13/14/1 
f 1/1/1 15/16/1 14/15/1 
f 1/1/1 16/17/1 15/16/1 
f 1/1/1 17/18/1 16/17/1 
f 1/1/1 18/19/1 17/18/1 
f 1/1/1 19/20/1 18/19/1 
f 1/1/1 20/21/1 19/20/1 
f 1/1/1 21/22/1 20/21/1 
f 1/1/1 22/23/1 21/22/1 
f 1/1/1 23/24/1 22/23/1 
f 1/1/1 24/25/1 23/24/1 
f 1/1/1 25/26/1 24/25/1 
f 1/1/1 3/3/1 25/26/1 
s 8
f 3/3/2 26/27/3 27/28/2 
f 3/3/2 2/2/3 26/27/3 
f 2/2/3 28/29/4 26/27/3 
f 2/2/3 4/4/4 28/29/4 
f 4/4/4 29/30/5 28/29/4 
f 4/4/4 5/5/5 29/30/5 
f 5/5/5 30/31/6 29/30/5 
f 5/5/5 6/6/6 30/31/6 
f 6/6/6 31/32/7 30/31/6 
f 6/6/6 7/7/7 31/32/7 
f 7/7/7 32/33/8 31/32/7 
f 7/7/7 8/8/8 32/33/8 
f 8/10/8 33/34/9 32/35/8 
f 8/10/8 9/9/9 33/34/9 
f 9/9/9 34/36/10 33/34/9 
f 9/9/9 10/11/10 34/36/10 
f 10/11/10 35/37/11 34/36/10 
f 10/11/10 11/12/11 35/37/11 
f 11/12/11 36/38/12 35/37/11 
f 11/12/11 12/13/12 36/38/12 
f 12/13/12 37/39/13 36/38/12 
f 12/13/12 13/14/13 37/39/13 
f 13/14/13 38/40/14 37/39/13 
f 13/14/13 14/15/14 38/40/14 
f 14/15/14 39/41/15 38/40/14 
f 14/15/14 15/16/15 39/41/15 
f 15/16/15 40/42/16 39/41/15 
f 15/16/15 16/17/16 40/42/16 
f 16/17/16 41/43/17 40/42/16 
f 16/17/16 17/18/17 41/43/17 
f 17/18/17 42/44/18 41/43/17 
f 17/18/17 18/19/18 42/44/18 
f 18/19/18 43/45/19 42/44/18 
f 18/19/18 19/20/19 43/45/19 
f 19/20/19 44/46/20 43/45/19 
f 19/20/19 20/21/20 44/46/20 
f 20/21/20 45/47/21 44/46/20 
f 20/21/20 21/22/21 45/47/21 
f 21/22/21 46/48/22 45/47/21 
f 21/22/21 22/23/22 46/48/22 
f 22/23/22 47/49/23 46/48/22 
f 22/23/22 23/24/23 47/49/23 
f 23/24/23 48/50/24 47/49/23 
f 23/24/23 24/25/24 48/50/24 
f 24/25/24 49/51/25 48/50/24 
f 24/25/24 25/26/25 49/51/25 
f 25/26/25 27/28/2 49/51/25 
f 25/26/25 3/3/2 27/28/2 
f 27/28/2 50/52/3 51/53/2 
f 27/28/2 26/27/3 50/52/3 
f 26/27/3 52/54/4 50/52/3 
f 26/27/3 28/29/4 52/54/4 
f 28/29/4 53/55/5 52/54/4 
f 28/29/4 29/30/5 53/55/5 
f 29/30/5 54/56/6 53/55/5 
f 29/30/5 30/31/6 54/56/6 
f 30/31/6 55/57/7 54/56/6 
f 30/31/6 31/32/7 55/57/7 
f 31/32/7 56/58/8 55/57/7 
f 31/32/7 32/33/8 56/58/8 
f 32/35/8 57/59/9 56/60/8 
f 32/35/8 33/34/9 57/59/9 
f 33/34/9 58/61/10 57/59/9 
f 33/34/9 34/36/10 58/61/10 
f 34/36/10 59/62/11 58/61/10 
f 34/36/10 35/37/11 59/62/11 
f 35/37/11 60/63/12 59/62/11 
f 35/37/11 36/38/12 60/63/12 
f 36/38/12 61/64/13 60/63/12 
f 36/38/12 37/39/13 61/64/13 
f 37/39/13 62/65/14 61/64/13 
f 37/39/13 38/40/14 62/65/14 
f 38/40/14 63/66/15 62/65/14 
f 38/40/14 39/41/15 63/66/15 
f 39/41/15 64/67/16 63/66/15 
f 39/41/15 40/42/16 64/67/16 
f 40/42/16 65/68/17 64/67/16 
f 40/42/16 41/43/17 65/68/17 
f 41/43/17 66/69/18 65/68/17 
f 41/43/17 42/44/18 66/69/18 
f 42/44/18 67/70/19 66/69/18 
f 42/44/18 43/45/19 67/70/19 
f 43/45/19 68/71/20 67/70/19 
f 43/45/19 44/46/20 68/71/20 
f 44/46/20 69/72/21 68/71/20 
f 44/46/20 45/47/21 69/72/21 
f 45/47/21 70/73/22 69/72/21 
f 45/47/21 46/48/22 70/73/22 
f 46/48/22 71/74/23 70/73/22 
f 46/48/22 47/49/23 71/74/23 
f 47/49/23 72/75/24 71/74/23 
f 47/49/23 48/50/24 72/75/24 
f 48/50/24 73/76/25 72/75/24 
f 48/50/24 49/51/25 73/76/25 
f 49/51/25 51/53/2 73/76/25 
f 49/51/25 27/28/2 51/53/2 
f 51/53/2 74/77/3 75/78/2 
f 51/53/2 50/52/3 74/77/3 
f 50/52/3 76/79/4 74/77/3 
f 50/52/3 52/54/4 76/79/4 
f 52/54/4 77/80/5 76/79/4 
f 52/54/4 53/55/5 77/80/5 
f 53/55/5 78/81/6 77/80/5 
f 53/55/5 54/56/6 78/81/6 
f 54/56/6 79/82/7 78/81/6 
f 54/56/6 55/57/7 79/82/7 
f 55/57/7 80/83/8 79/82/7 
f 55/57/7 56/58/8 80/83/8 
f 56/60/8 81/84/9 80/85/8 
f 56/60/8 57/59/9 81/84/9 
f 57/59/9 82/86/10 81/84/9 
f 57/59/9 58/61/10 82/86/10 
f 58/61/10 83/87/11 82/86/10 
f 58/61/10 59/62/11 83/87/11 
f 59/62/11 84/88/12 83/87/11 
f 59/62/11 60/63/12 84/88/12 
f 60/63/12 85/89/13 84/88/12 
f 60/63/12 61/64/13 85/89/13 
f 61/64/13 86/90/14 85/89/13 
f 61/64/13 62/65/14 86/90/14 
f 62/65/14 87/91/15 86/90/14 
f 62/65/14 63/66/15 87/91/15 
f 63/66/15 88/92/16 87/91/15 
f 63/66/15 64/67/16 88/92/16 
f 64/67/16 89/93/17 88/92/16 
f 64/67/16 65/68/17 89/93/17 
f 65/68/17 90/94/18 89/93/17 
f 65/68/17 66/69/18 90/94/18 
f 66/69/18 91/95/19 90/94/18 
f 66/69/18 67/70/19 91/95/19 
f 67/70/19 92/96/20 91/95/19 
f 67/70/19 68/71/20 92/96/20 
f 68/71/20 93/97/21 92/96/20 
f 68/71/20 69/72/21 93/97/21 
f 69/72/21 94/98/22 93/97/21 
f 69/72/21 70/73/22 94/98/22 
f 70/73/22 95/99/23 94/98/22 
f 70/73/22 71/74/23 95/99/23 
f 71/74/23 96/100/24 95/99/23 
f 71/74/23 72/75/24 96/100/24 
f 72/75/24 97/101/25 96/100/24 
f 72/75/24 73/76/25 97/101/25 
f 73/76/25 75/78/2 97/101/25 
f 73/76/25 51/53/2 75/78/2 
f 75/78/2 98/102/3 99/103/2 
f 75/78/2 74/77/3 98/102/3 
f 74/77/3 100/104/4 98/102/3 
f 74/77/3 76/79/4 100/104/4 
f 76/79/4 101/105/5 100/104/4 
f 76/79/4 77/80/5 101/105/5 
f 77/80/5 102/106/6 101/105/5 
f 77/80/5 78/81/6 102/106/6 
f 78/81/6 103/107/7 102/106/6 
f 78/81/6 79/82/7 103/107/7 
f 79/82/7 104/108/8 103/107/7 
f 79/82/7 80/83/8 104/108/8 
f 80/85/8 105/109/9 104/110/8 
f 80/85/8 81/84/9 105/109/9 
f 81/84/9 106/111/10 105/109/9 
f 81/84/9 82/86/10 106/111/10 
f 82/86/10 107/112/11 106/111/10 
f 82/86/10 83/87/11 107/112/11 
f 83/87/11 108/113/12 107/112/11 
f 83/87/11 84/88/12 108/113/12 
f 84/88/12 109/114/13 108/113/12 
f 84/88/12 85/89/13 109/114/13 
f 85/89/13 110/115/14 109/114/13 
f 85/89/13 86/90/14 110/115/14 
f 86/90/14 111/116/15 110/115/14 
f 86/90/14 87/91/15 111/116/15 
f 87/91/15 112/117/16 111/116/15 
f 87/91/15 88/92/16 112/117/16 
f 88/92/16 113/118/17 112/117/16 
f 88/92/16 89/93/17 113/118/17 
f 89/93/17 114/119/18 113/118/17 
f 89/93/17 90/94/18 114/119/18 
f 90/94/18 115/120/19 114/119/18 
f 90/94/18 91/95/19 115/120/19 
f 91/95/19 116/121/20 115/120/19 
f 91/95/19 92/96/20 116/121/20 
f 92/96/20 117/122/21 116/121/20 
f 92/96/20 93/97/21 117/122/21 
f 93/97/21 118/123/22 117/122/21 
f 93/97/21 94/98/22 118/123/22 
f 94/98/22 119/124/23 118/123/22 
f 94/98/22 95/99/23 119/124/23 
f 95/99/23 120/125/24 119/124/23 
f 95/99/23 96/100/24 120/125/24 
f 96/100/24 121/126/25 120/125/24 
f 96/100/24 97/101/25 121/126/25 
f 97/101/25 99/103/2 121/126/25 
f 97/101/25 75/78/2 99/103/2 
f 99/103/2 122/127/26 122/127/27 
f 99/103/2 98/102/3 122/127/26 
f 98/102/3 122/127/28 122/127/26 
f 98/102/3 100/104/4 122/127/28 
f 100/104/4 122/127/29 122/127/28 
f 100/104/4 101/105/5 122/127/29 
f 101/105/5 122/127/30 122/127/29 
f 101/105/5 102/106/6 122/127/30 
f 102/106/6 122/127/31 122/127/30 
f 102/106/6 103/107/7 122/127/31 
f 103/107/7 122/127/32 122/127/31 
f 103/107/7 104/108/8 122/127/32 
f 104/108/8 122/127/33 122/127/32 
f 104/110/8 105/109/9 122/127/33 
f 105/109/9 122/127/34 122/127/33 
f 105/109/9 106/111/10 122/127/34 
f 106/111/10 122/127/35 122/127/34 
f 106/111/10 107/112/11 122/127/35 
f 107/112/11 122/127/36 122/127/35 
f 107/112/11 108/113/12 122/127/36 
f 108/113/12 122/127/37 122/127/36 
f 108/113/12 109/114/13 122/127/37 
f 109/114/13 122/127/38 122/127/37 
f 109/114/13 110/115/14 122/127/38 
f 110/115/14 122/127/39 122/127/38 
f 110/115/14 111/116/15 122/127/39 
f 111/116/15 122/127/40 122/127/39 
f 111/116/15 112/117/16 122/127/40 
f 112/117/16 122/127/41 122/127/40 
f 112/117/16 113/118/17 122/127/41 
f 113/118/17 122/127/42 122/127/41 
f 113/118/17 114/119/18 122/127/42 
f 114/119/18 122/127/43 122/127/42 
f 114/119/18 115/120/19 122/127/43 
f 115/120/19 122/127/44 122/127/43 
f 115/120/19 116/121/20 122/127/44 
f 116/121/20 122/127/45 122/127/44 
f 116/121/20 117/122/21 122/127/45 
f 117/122/21 122/127/46 122/127/45 
f 117/122/21 118/123/22 122/127/46 
f 118/123/22 122/127/47 122/127/46 
f 118/123/22 119/124/23 122/127/47 
f 119/124/23 122/127/48 122/127/47 
f 119/124/23 120/125/24 122/127/48 
f 120/125/24 122/127/49 122/127/48 
f 120/125/24 121/126/25 122/127/49 
f 121/126/25 122/127/27 122/127/49 
f 121/126/25 99/103/2 122/127/27 
s 1
f 122/127/50 122/127/50 122/127/50 
f 122/127/50 122/127/50 122/127/50 
f 122/127/50 122/127/50 122/127/50 
f 122/127/50 122/127/50 122/127/50 
f 122/127/50 122/127/50 122/127/50 
f 122/127/50 122/127/50 122/127/50 
f 122/127/50 122/127/50 122/127/50 
f 122/127/50 122/127/50 122/127/50 
f 122/127/50 122/127/50 122/127/50 
f 122/127/50 122/127/50 122/127/50 
f 122/127/50 122/127/50 122/127/50 
f 122/127/50 122/127/50 122/127/50 
f 122/127/50 122/127/50 122/127/50 
f 122/127/50 122/127/50 122/127/50 
f 122/127/50 122/127/50 122/127/50 
f 122/127/50 122/127/50 122/127/50 
f 122/127/50 122/127/50 122/127/50 
f 122/127/50 122/127/50 122/127/50 
f 122/127/50 122/127/50 122/127/50 
f 122/127/50 122/127/50 122/127/50 
f 122/127/50 122/127/50 122/127/50 
f 122/127/50 122/127/50 122/127/50 
f 122/127/50 122/127/50 122/127/50 
f 122/127/50 122/127/50 122/127/50 
# 288 faces

#
# object Box001
#

v  -5.8500 0.0000 5.8500
v  -5.8500 0.0000 -5.8500
v  5.8500 0.0000 -5.8500
v  5.8500 0.0000 5.8500
v  -5.8500 36.0000 5.8500
v  5.8500 36.0000 5.8500
v  5.8500 36.0000 -5.8500
v  -5.8500 36.0000 -5.8500
# 8 vertices

vn 0.0000 -1.0000 -0.0000
vn 0.0000 1.0000 -0.0000
vn 0.0000 0.0000 1.0000
vn 1.0000 0.0000 -0.0000
vn 0.0000 0.0000 -1.0000
vn -1.0000 0.0000 -0.0000
# 6 vertex normals

vt 1.0000 0.0000 0.0000
vt 1.0000 1.0000 0.0000
vt 0.0000 1.0000 0.0000
vt 0.0000 0.0000 0.0000
# 4 texture coords

o Box001
g Box001
usemtl wire_087225087
s 2
f 123/128/51 124/129/51 125/130/51 
f 125/130/51 126/131/51 123/128/51 
s 4
f 127/131/52 128/128/52 129/129/52 
f 129/129/52 130/130/52 127/131/52 
s 8
f 123/131/53 126/128/53 128/129/53 
f 128/129/53 127/130/53 123/131/53 
s 16
f 126/131/54 125/128/54 129/129/54 
f 129/129/54 128/130/54 126/131/54 
s 32
f 125/131/55 124/128/55 130/129/55 
f 130/129/55 129/130/55 125/131/55 
s 64
f 124/131/56 123/128/56 127/129/56 
f 127/129/56 130/130/56 124/131/56 
# 12 faces

