# 3ds Max Wavefront OBJ Exporter v0.97b - (c)2007 guruware
# 创建的文件:23.12.2018 11:00:13

mtllib arrow_1.mtl

#
# object Pyramid001
#

v  0.0000 59.4939 -0.0000
v  -9.5815 36.0000 7.7077
v  9.5815 36.0000 7.7077
v  9.5815 36.0000 -7.7077
v  -9.5815 36.0000 -7.7077
v  0.0000 36.0000 -0.0000
# 6 vertices

vn 0.0000 0.3117 0.9502
vn 0.9260 0.3776 -0.0000
vn 0.0000 0.3117 -0.9502
vn -0.9260 0.3776 -0.0000
vn 0.0000 -1.0000 -0.0000
# 5 vertex normals

vt 0.5000 1.0000 0.0000
vt 0.0000 0.0000 0.0000
vt 1.0000 0.0000 0.0000
vt -0.1216 0.0000 0.0000
vt 0.8784 0.0000 0.0000
vt 0.0000 1.0000 0.0000
vt 0.5000 0.5000 0.0000
vt 1.0000 1.0000 0.0000
# 8 texture coords

o Pyramid001
g Pyramid001
usemtl wire_006135058
s 4
f 1/1/1 2/2/1 3/3/1 
s 2
f 1/1/2 3/4/2 4/5/2 
s 16
f 1/1/3 4/2/3 5/3/3 
s 32
f 1/1/4 5/4/4 2/5/4 
s 8
f 2/6/5 6/7/5 3/8/5 
f 3/8/5 6/7/5 4/3/5 
f 4/3/5 6/7/5 5/2/5 
f 5/2/5 6/7/5 2/6/5 
# 8 faces

#
# object Box001
#

v  -3.6000 0.0000 3.6000
v  -3.6000 0.0000 -3.6000
v  3.6000 0.0000 -3.6000
v  3.6000 0.0000 3.6000
v  -3.6000 35.7999 3.6000
v  3.6000 35.7999 3.6000
v  3.6000 35.7999 -3.6000
v  -3.6000 35.7999 -3.6000
# 8 vertices

vn 0.0000 -1.0000 -0.0000
vn 0.0000 1.0000 -0.0000
vn 0.0000 0.0000 1.0000
vn 1.0000 0.0000 -0.0000
vn 0.0000 0.0000 -1.0000
vn -1.0000 0.0000 -0.0000
# 6 vertex normals

vt 1.0000 0.0000 0.0000
vt 1.0000 1.0000 0.0000
vt 0.0000 1.0000 0.0000
vt 0.0000 0.0000 0.0000
# 4 texture coords

o Box001
g Box001
usemtl wire_087225087
s 2
f 7/9/6 8/10/6 9/11/6 
f 9/11/6 10/12/6 7/9/6 
s 4
f 11/12/7 12/9/7 13/10/7 
f 13/10/7 14/11/7 11/12/7 
s 8
f 7/12/8 10/9/8 12/10/8 
f 12/10/8 11/11/8 7/12/8 
s 16
f 10/12/9 9/9/9 13/10/9 
f 13/10/9 12/11/9 10/12/9 
s 32
f 9/12/10 8/9/10 14/10/10 
f 14/10/10 13/11/10 9/12/10 
s 64
f 8/12/11 7/9/11 11/10/11 
f 11/10/11 14/11/11 8/12/11 
# 12 faces

